<svg xmlns="http://www.w3.org/2000/svg" fill="#1A76D1" xmlns:xlink="http://www.w3.org/1999/xlink" version="1.1" x="0px" y="0px" viewBox="0 0 96 120" enable-background="new 0 0 96 96" xml:space="preserve"><g><path d="M24.16,69.88c-0.094-0.094-0.221-0.146-0.354-0.146s-0.26,0.053-0.354,0.146l-7.349,7.348l-3.072-3.068   c-0.195-0.195-0.512-0.195-0.707,0l-2.473,2.475c-0.195,0.195-0.195,0.512,0,0.707l8.838,8.839   c0.094,0.094,0.221,0.146,0.354,0.146s0.26-0.053,0.354-0.146l2.475-2.476c0.195-0.195,0.195-0.512,0-0.707L18.8,79.926   l7.348-7.351c0.195-0.195,0.195-0.512,0-0.707L24.16,69.88z M17.739,79.572c-0.195,0.195-0.195,0.512,0,0.707l3.072,3.071   l-1.768,1.769l-8.131-8.132l1.767-1.768l3.071,3.068c0.195,0.195,0.512,0.195,0.707,0l7.349-7.348l1.281,1.281L17.739,79.572z"/><path d="M60.342,24.72c-0.195-0.195-0.512-0.195-0.707,0l-0.829,0.83c-0.004,0.003-0.009,0.004-0.012,0.007l-32.69,32.691   l-0.6,0.599c0,0.001,0,0.001-0.001,0.002l-3.714,3.714c0,0,0,0.001-0.001,0.002l-1.411,1.41c-0.195,0.195-0.195,0.512,0,0.707   l10.968,10.968c0.098,0.098,0.226,0.146,0.354,0.146s0.256-0.049,0.354-0.146l39.264-39.257c0.094-0.094,0.146-0.221,0.146-0.354   c0-0.133-0.053-0.26-0.146-0.354L60.342,24.72z M56.719,29.046l3.012,4.114l-0.758,0.649L55.465,30.3L56.719,29.046z    M52.302,33.463l3.011,4.114l-0.757,0.65l-3.508-3.509L52.302,33.463z M47.885,37.88l3.011,4.115l-0.758,0.649l-3.509-3.509   L47.885,37.88z M43.468,42.298l3.01,4.114l-0.756,0.648l-3.508-3.509L43.468,42.298z M39.051,46.715l3.011,4.115l-0.757,0.647   l-3.508-3.509L39.051,46.715z M34.634,51.132l3.011,4.112l-0.757,0.649l-3.508-3.507L34.634,51.132z M30.217,55.549l3.009,4.114   L32.47,60.31l-3.507-3.507L30.217,55.549z M25.799,59.967l3.01,4.115l-0.756,0.646l-3.508-3.507L25.799,59.967z M31.699,74.589   L21.438,64.328l2.399-2.399l3.835,3.834c0.184,0.185,0.48,0.195,0.678,0.026l1.46-1.248c0.199-0.17,0.233-0.464,0.079-0.675   l-3.375-4.615l1.742-1.74l3.834,3.833c0.184,0.186,0.479,0.195,0.678,0.026l1.46-1.248c0.199-0.17,0.233-0.464,0.079-0.675   l-3.374-4.613l1.74-1.739l3.835,3.833c0.184,0.186,0.479,0.194,0.679,0.026l1.46-1.252c0.198-0.17,0.232-0.465,0.078-0.675   l-3.374-4.609l1.74-1.742l3.834,3.836c0.184,0.185,0.479,0.195,0.678,0.026l1.461-1.249c0.199-0.17,0.233-0.464,0.079-0.675   l-3.375-4.613l1.741-1.741l3.833,3.836c0.184,0.185,0.479,0.194,0.679,0.026l1.459-1.252c0.198-0.171,0.232-0.465,0.078-0.675   l-3.374-4.611l1.74-1.739l3.834,3.834c0.184,0.185,0.48,0.195,0.679,0.026l1.461-1.251c0.198-0.17,0.232-0.464,0.078-0.675   l-3.375-4.612l1.74-1.741l3.835,3.836c0.185,0.186,0.48,0.195,0.68,0.026l1.459-1.253c0.197-0.17,0.231-0.464,0.077-0.675   l-3.374-4.61l1.741-1.739l3.833,3.834c0.185,0.185,0.481,0.197,0.679,0.026l1.461-1.251c0.198-0.17,0.232-0.464,0.078-0.675   l-3.375-4.611l2.553-2.552l10.268,10.258L31.699,74.589z"/><path d="M86.148,10.521l-0.707-0.707c-0.188-0.188-0.52-0.188-0.707,0L67.657,26.892l-1.865-1.867   c-0.094-0.094-0.221-0.146-0.354-0.146c0,0,0,0-0.001,0c-0.133,0-0.26,0.053-0.354,0.147l-0.449,0.452   c-0.194,0.195-0.194,0.511,0.001,0.706l5.207,5.207c0.094,0.094,0.221,0.146,0.354,0.146c0,0,0,0,0.001,0   c0.133,0,0.26-0.053,0.354-0.147L71,30.939c0.194-0.196,0.194-0.512-0.001-0.707l-1.928-1.926l17.077-17.078   C86.344,11.033,86.344,10.717,86.148,10.521z"/></g></svg>
