<svg xmlns="http://www.w3.org/2000/svg" fill="#1A76D1" xmlns:xlink="http://www.w3.org/1999/xlink" version="1.1" x="0px" y="0px" viewBox="0 0 100 125" style="enable-background:new 0 0 100 100;" xml:space="preserve"><g><g><g><g><path d="M42.4,100c-3.9,0-8.3-0.4-13.1-1.4c-2.9-0.6-5.5-1.4-8.1-2.3c-6-2-11.8-3.8-19.8-2      c-0.6,0.1-1.2-0.2-1.4-0.9c-0.1-0.6,0.2-1.2,0.9-1.4c8.7-2,15,0.1,21,2c2.5,0.8,5.1,1.7,7.8,2.2c22.7,4.6,35.9-4.5,36-4.6      c0.5-0.4,1.2-0.2,1.6,0.3c0.4,0.5,0.2,1.2-0.3,1.6C66.6,94,57.9,100,42.4,100z"/></g><g><path d="M7.8,49.8c-2.2,0-4.4-0.2-6.9-0.8c-0.6-0.1-1-0.7-0.9-1.4c0.1-0.6,0.7-1,1.4-0.9c8.1,1.8,13.8,0,19.8-2      c2.6-0.8,5.2-1.7,8.1-2.3c2-0.4,3.9-0.7,5.9-0.9c0.6-0.1,1.2,0.4,1.3,1c0.1,0.6-0.4,1.2-1,1.3c-1.9,0.2-3.8,0.5-5.7,0.9      c-2.7,0.5-5.3,1.4-7.8,2.2C17.6,48.4,13.2,49.8,7.8,49.8z"/></g></g><g><path d="M50.7,88.3c-0.1,0-0.1,0-0.2,0c-0.6-0.1-1-0.7-0.9-1.3c0.5-2.5,0.7-6.2-0.8-9.6c-1.3-3-4.1-5.3-6.9-5.7     c-0.6-0.1-1-0.6-1-1.1s0.4-1,1-1.1c2.9-0.4,5.6-2.7,6.9-5.7c1.5-3.4,1.3-7.1,0.8-9.6c-0.1-0.6,0.3-1.2,0.9-1.3     c0.6-0.1,1.2,0.3,1.3,0.9c0.8,4.1,0.4,7.9-0.9,10.9c-1.2,2.6-3.1,4.7-5.3,5.9c2.3,1.2,4.2,3.3,5.3,5.9c1.4,3.1,1.7,6.9,0.9,10.9     C51.7,87.9,51.3,88.3,50.7,88.3z"/></g></g><g><g><path d="M94.6,45H45.7c-3,0-5.4-2.4-5.4-5.4V5.5c0-3,2.4-5.4,5.4-5.4h48.9c3,0,5.4,2.4,5.4,5.4v34.1     C100,42.6,97.6,45,94.6,45z M45.7,2.3c-1.7,0-3.1,1.4-3.1,3.1v34.1c0,1.7,1.4,3.1,3.1,3.1h48.9c1.7,0,3.1-1.4,3.1-3.1V5.5     c0-1.7-1.4-3.1-3.1-3.1H45.7z"/></g><g><path d="M91.8,38H48.4c-0.6,0-1.1-0.5-1.1-1.1V8.2c0-0.6,0.5-1.1,1.1-1.1h43.4c0.6,0,1.1,0.5,1.1,1.1v28.6     C93,37.5,92.5,38,91.8,38z M49.5,35.7h41.2V9.3H49.5V35.7z"/></g></g><g><path d="M80,89.9c-0.8,0-1.7-0.1-2.5-0.3c-3.7-1-6.5-3.9-7.8-8.4c-0.4-1.5-0.8-3.6-1-6.3c-0.1-0.6,0.4-1.2,1-1.2    c0.6-0.1,1.2,0.4,1.2,1c0.2,2.5,0.5,4.5,0.9,5.8c1.1,3.7,3.3,6.1,6.2,6.8c2.6,0.7,5.7-0.1,7.5-2c2.5-2.5,3-6.9,1.1-10    c-1.6-2.4-4.9-3.7-10.1-3.7H51.1c-0.6,0-1.1-0.5-1.1-1.1c0-0.6,0.5-1.1,1.1-1.1h25.4c6,0,10,1.6,12,4.7c2.5,3.9,1.9,9.6-1.4,12.8    C85.3,88.9,82.6,89.9,80,89.9z"/></g><g><path d="M86,38c-0.6,0-1.1-0.5-1.1-1.1c0-8.1-6.6-14.8-14.8-14.8c-8.1,0-14.8,6.6-14.8,14.8    c0,0.6-0.5,1.1-1.1,1.1c-0.6,0-1.1-0.5-1.1-1.1c0-9.4,7.6-17,17-17c9.4,0,17,7.6,17,17C87.2,37.5,86.7,38,86,38z"/></g><g><path d="M78.5,38c-0.6,0-1.1-0.5-1.1-1.1c0-4-3.3-7.3-7.3-7.3c-4,0-7.3,3.3-7.3,7.3c0,0.6-0.5,1.1-1.1,1.1    c-0.6,0-1.1-0.5-1.1-1.1c0-5.3,4.3-9.5,9.5-9.5c5.3,0,9.5,4.3,9.5,9.5C79.7,37.5,79.1,38,78.5,38z"/></g><g><path d="M70,71.7c-0.6,0-1.1-0.5-1.1-1.1V43.9c0-0.6,0.5-1.1,1.1-1.1c0.6,0,1.1,0.5,1.1,1.1v26.7    C71.2,71.2,70.6,71.7,70,71.7z"/></g></g></svg>
