<svg xmlns="http://www.w3.org/2000/svg" fill="#1A76D1" xmlns:osb="http://www.openswatchbook.org/uri/2009/osb" version="1.1" viewBox="0 0 64 80" x="0px" y="0px"><path d="m 43,11 c -5.08655376,1e-8 -9.64134224,2.2500839 -12.7578125,5.79492188 0.315029,0.14298388 0.62752918,0.29062696 0.93359375,0.44921874 C 34.10146663,14.02932417 38.30640709,12.00000001 43,12 c 8.84247831,0 16,7.15752169 16,16 -0.007792,4.07090467 -1.56632389,7.98369284 -4.359375,10.9453125 L 54.4453125,39.15234375 55.8359375,44 H 43 c -1.0326938,0 -2.03956523,-0.10643754 -3.01757812,-0.29296875 -0.15175791,0.31258068 -0.29754063,0.62839612 -0.46484376,0.93164063 C 40.64233593,44.87330637 41.80599526,45 43,45 h 14.1640625 l -1.609375,-5.60742188 C 58.39092864,36.27423983 59.99191818,32.22252143 60,28 60,18.61708157 52.38291843,11 43,11 Z" style="color-rendering:auto;color:#000000;dominant-baseline:auto;font-feature-settings:normal;font-variant-alternates:normal;font-variant-caps:normal;font-variant-ligatures:normal;font-variant-numeric:normal;font-variant-position:normal;image-rendering:auto;isolation:auto;mix-blend-mode:normal;paint-order:fill markers stroke;shape-padding:0;shape-rendering:auto;solid-color:#000000;text-decoration-color:#000000;text-decoration-line:none;text-decoration-style:solid;text-indent:0;text-orientation:mixed;text-transform:none;white-space:normal;" fill="#1A76D1"/><path d="M 22,17 C 12.06479684,17 4,25.06479684 4,35 4.0076317,39.79359692 5.950445126,44.36501655 9.34765625,47.734375 L 7.8359375,53 H 22 C 29.43991272,53 35.82931138,48.47695271 38.5703125,42.03320312 41.83727888,39.88780282 44,36.19574449 44,32 44,25.37850532 38.62149468,20 32,20 c -0.0204427,0 -0.040128,0.003804 -0.0605469,0.003906 -4.6183e-4,-3.0689e-4 -0.001491,3.0684e-4 -0.001953,0 C 29.08799778,18.11082608 25.67465094,17 22,17 Z m 0,1 c 2.9983022,0 5.80919541,0.78237168 8.25390625,2.14257812 C 24.46061323,20.99149661 20,25.9731464 20,32 c 0,6.62149468 5.37850532,12 12,12 1.81184479,0 3.52347056,-0.41407483 5.06445312,-1.13476562 C 34.22672528,48.29296531 28.55375688,52 22,52 H 9.1640625 l 1.30273438,-4.53515625 -0.21875,-0.20898437 C 6.90256088,44.05520218 5.007371132,39.6299491 5,35 5,25.60523692 12.60523692,18 22,18 Z m 10,3 c 6.08105456,0 11,4.91894544 11,11 0,6.08105456 -4.91894544,11 -11,11 -6.08105456,0 -11,-4.91894544 -11,-11 0,-6.08105456 4.91894544,-11 11,-11 z" style="color-rendering:auto;color:#000000;dominant-baseline:auto;font-feature-settings:normal;font-variant-alternates:normal;font-variant-caps:normal;font-variant-ligatures:normal;font-variant-numeric:normal;font-variant-position:normal;image-rendering:auto;isolation:auto;mix-blend-mode:normal;paint-order:fill markers stroke;shape-padding:0;shape-rendering:auto;solid-color:#000000;text-decoration-color:#000000;text-decoration-line:none;text-decoration-style:solid;text-indent:0;text-orientation:mixed;text-transform:none;white-space:normal;" fill="#1A76D1"/><path d="m29 25v4h-4v6h4v4h6v-4h4v-6h-4v-4zm1 1h4v4h4v4h-4v4h-4v-4h-4v-4h4z" style="color-rendering:auto;color:#000000;dominant-baseline:auto;font-feature-settings:normal;font-variant-alternates:normal;font-variant-caps:normal;font-variant-ligatures:normal;font-variant-numeric:normal;font-variant-position:normal;image-rendering:auto;isolation:auto;mix-blend-mode:normal;paint-order:fill markers stroke;shape-padding:0;shape-rendering:auto;solid-color:#000000;text-decoration-color:#000000;text-decoration-line:none;text-decoration-style:solid;text-indent:0;text-orientation:mixed;text-transform:none;white-space:normal;" fill="#1A76D1"/></svg>
