<svg xmlns="http://www.w3.org/2000/svg" fill="#1A76D1" xmlns:xlink="http://www.w3.org/1999/xlink" version="1.1" x="0px" y="0px" viewBox="0 0 512 640" enable-background="new 0 0 512 512" xml:space="preserve"><g><path d="M140.063,237.104h206.976c3.866,0,7-3.134,7-7s-3.134-7-7-7H140.063c-3.866,0-7,3.134-7,7S136.197,237.104,140.063,237.104   z"/><path d="M347.039,301.623H140.063c-3.866,0-7,3.134-7,7c0,3.865,3.134,7,7,7h206.976c3.866,0,7-3.135,7-7   C354.039,304.757,350.905,301.623,347.039,301.623z"/><path d="M347.039,380.105H140.063c-3.866,0-7,3.134-7,7c0,3.865,3.134,7,7,7h206.976c3.866,0,7-3.135,7-7   C354.039,383.239,350.905,380.105,347.039,380.105z"/><path d="M213.341,162.4h23.21v23.189c0,3.866,3.134,7,7,7c3.866,0,7-3.134,7-7V162.4h23.209c3.866,0,7-3.134,7-7   c0-3.866-3.134-7-7-7h-23.209v-23.188c0-3.866-3.134-7-7-7c-3.866,0-7,3.134-7,7V148.4h-23.21c-3.866,0-7,3.134-7,7   C206.341,159.266,209.475,162.4,213.341,162.4z"/><path d="M435.403,260.588h-17.091v-17.055c0-3.866-3.135-7-7-7s-7,3.134-7,7v17.055h-17.089c-3.864,0-7,3.135-7,7   c0,3.866,3.136,7,7,7h17.089v17.053c0,3.866,3.135,7,7,7s7-3.134,7-7v-17.053h17.091c3.864,0,7-3.134,7-7   C442.403,263.723,439.269,260.588,435.403,260.588z"/><path d="M485.995,450.694h-70.508V332.348c33.894-2.158,60.811-30.371,60.811-64.76c0.001-17.356-6.76-33.669-19.035-45.933   c-11.28-11.272-25.986-17.872-41.773-18.866V54.623c0-1.856-0.737-3.637-2.051-4.95c-1.314-1.313-3.096-2.05-4.95-2.05   L78.616,47.66c-3.866,0-6.999,3.134-6.999,7v396.034H26.003c-3.866,0-7,3.134-7,7c0,3.864,3.134,7,7,7h52.614h329.87h77.508   c3.866,0,7-3.136,7-7C492.995,453.828,489.861,450.694,485.995,450.694z M401.489,450.694L401.489,450.694H85.617V61.659   l315.87-0.035v141.757c-27.017,4.062-48.334,24.605-53.787,50.918c-0.028,0.132-0.058,0.264-0.083,0.396   c-0.171,0.854-0.324,1.713-0.462,2.579c-0.036,0.227-0.075,0.449-0.108,0.677c-0.117,0.786-0.215,1.579-0.303,2.377   c-0.032,0.28-0.069,0.563-0.098,0.845c-0.076,0.782-0.133,1.571-0.182,2.362c-0.018,0.28-0.044,0.563-0.059,0.847   c-0.051,1.063-0.081,2.133-0.081,3.208s0.03,2.146,0.081,3.206c0.015,0.284,0.041,0.564,0.059,0.852   c0.049,0.787,0.104,1.574,0.182,2.354c0.026,0.284,0.064,0.565,0.098,0.851c0.088,0.793,0.186,1.584,0.302,2.367   c0.034,0.229,0.074,0.456,0.11,0.686c0.138,0.861,0.29,1.716,0.46,2.564c0.026,0.137,0.057,0.272,0.086,0.409   c0.202,0.978,0.427,1.946,0.673,2.906c0.001,0.004,0.002,0.008,0.003,0.012c6.111,23.831,25.383,42.417,49.848,47.378   c0.003,0,0.005,0.001,0.01,0.002c0.987,0.2,1.984,0.381,2.989,0.534c0.076,0.013,0.151,0.027,0.229,0.04   c0.012,0.002,0.021,0.004,0.035,0.006V450.694z M408.879,318.434c-0.021-0.002-0.039-0.006-0.06-0.007   c-1.389-0.065-2.754-0.2-4.107-0.372c-0.348-0.047-0.697-0.082-1.042-0.134c-0.253-0.038-0.501-0.088-0.752-0.129   c-0.622-0.104-1.245-0.207-1.859-0.332c-0.016-0.004-0.029-0.008-0.047-0.011c-20.705-4.258-36.867-21.09-40.096-42.116   c0-0.002,0-0.003,0-0.004c-0.117-0.761-0.211-1.526-0.294-2.298c-0.01-0.092-0.024-0.182-0.033-0.273   c-0.071-0.703-0.12-1.414-0.162-2.126c-0.01-0.151-0.024-0.303-0.034-0.456c-0.043-0.857-0.063-1.721-0.063-2.589   s0.021-1.731,0.063-2.591c0.01-0.15,0.024-0.301,0.033-0.451c0.043-0.715,0.092-1.428,0.163-2.134   c0.009-0.089,0.023-0.175,0.032-0.265c2.434-22.798,19.979-41.144,42.403-44.822c0.21-0.034,0.417-0.076,0.628-0.107   c0.393-0.06,0.791-0.101,1.187-0.151c0.479-0.06,0.953-0.128,1.438-0.174c0.053-0.005,0.104-0.007,0.156-0.012   c0.791-0.074,1.586-0.134,2.389-0.172c0.018-0.001,0.032-0.004,0.052-0.005c0.81-0.039,1.623-0.062,2.44-0.062   c13.621,0,26.428,5.297,36.056,14.917s14.93,22.416,14.93,36.03c0,28.07-22.872,50.907-50.984,50.907   C410.497,318.495,409.686,318.473,408.879,318.434z"/></g></svg>
