<svg xmlns="http://www.w3.org/2000/svg" fill="#1A76D1" data-name="Ebene 1" viewBox="0 0 300 375" x="0px" y="0px"><path d="M81,207.08q0-15.22,0-30.45V161.86l-1.08-.1c-1.09-.1-2.12-.19-3.16-.38a14.51,14.51,0,0,1-11.69-9.61c-1.73-4.59-3.4-9.29-5-13.83l-.9-2.54a7.25,7.25,0,0,1,.08-5.29,6.15,6.15,0,0,1,3.66-3.44c3.53-1.26,7.09.55,8.46,4.3,1.05,2.87,2.08,5.74,3.11,8.62.78,2.17,1.56,4.35,2.35,6.52.87,2.4,1.52,2.84,4.08,2.51a27.33,27.33,0,0,0-1.6-9.15A41.42,41.42,0,0,0,72.15,126a5.82,5.82,0,0,0-2.25-1.66c-4.06-1.58-7.86-3-11.62-4.23a3.79,3.79,0,0,0-2.44.1,18,18,0,0,0-11.59,17.89c1.39,27.83,1.48,56,1.38,82.35a2.73,2.73,0,0,0,0,.35v0H67.16A13.51,13.51,0,0,0,81,207.08Zm-4.49-17.45-1.29.33-.15-.44c-.2-.6-.39-1.21-.57-1.81a27.72,27.72,0,0,0-1.39-3.83,12.75,12.75,0,0,1,.08-11.19c.51-1.14,1.22-2.09,3-1.38l.31.12Z"/><path d="M175,190c4.54-4.83,4.57-11.11.07-16-3.54-3.85-8.22-6-14.3-6.6a46,46,0,0,0-5.38-.09c-.63,0-1.25,0-1.87,0,2.13,9.81,0,16.58-6.65,21.26a17.77,17.77,0,0,1-20.11.38c-7.49-5.09-10-12.39-7.35-21.7-1-.06-2.11-.1-3.19-.1-6,0-12.39,1.13-17.62,6.08a12,12,0,0,0-4,8.67,12.15,12.15,0,0,0,4,8.76,21.6,21.6,0,0,0,15.18,6c14.71.16,29.87.17,45.07,0C165.43,196.56,170.87,194.32,175,190Z"/><path d="M44,64.3c1.33,1.67,3.53,2.56,6.36,2.57q13.39,0,26.77,0H99.94q47,0,93.89,0a10.68,10.68,0,0,0,3.65-.46c2.38-.89,5-2.61,4.34-8h-159A7.09,7.09,0,0,0,44,64.3Z"/><path d="M121.7,174a14.83,14.83,0,0,0,14.6,14.51h0a14.72,14.72,0,0,0,14.76-14.8,14.51,14.51,0,0,0-14.68-14.61h0a14.59,14.59,0,0,0-10.4,4.31A14.83,14.83,0,0,0,121.7,174Z"/><rect x="131.95" y="207.47" width="8.97" height="27.49"/><path d="M132.11,130.31a83.19,83.19,0,0,0,8.65,0c1.72-.08,2.15-.57,2.15-2.48,0-2.22,0-4.44,0-6.68v-2.3l-.72,0a14.39,14.39,0,0,1-2.38-.06,5.15,5.15,0,0,1-4.73-4.39,5.35,5.35,0,0,1,3.66-5.55,20.64,20.64,0,0,1,3-.75l1-.2v-2.09H130a6.4,6.4,0,0,0-.08.88q0,10.56,0,21.13C129.88,129.65,130.4,130.23,132.11,130.31Z"/><rect x="88.32" y="200.32" width="96.25" height="1.71"/><path d="M165.66,242.23h4.05v-.44c0-.64,0-1.26,0-1.87,0-2.2-1.12-3.22-3.35-3.22H144.12l-10.26,0c-8.12,0-16.52.06-24.78-.08-2.42,0-3.83.31-4.55,1.12s-.88,2.1-.61,4.5h3.94l.2-2.85h57.35Z"/><path d="M170.2,204.62c-12.39-1.06-25-.91-37.22-.77-6.55.08-13.33.16-20,.06a64.06,64.06,0,0,0-6.51.33c-1.8.16-3.66.32-5.5.35a33.31,33.31,0,0,1-4.8-.41c-.82-.11-1.63-.22-2.45-.3a6,6,0,0,0-1.18,0h-.19c.24,1.44,1.13,1.75,2.45,1.75h19.85l62.86,0c2.14,0,2.58-.18,3-1.95l-1.25.19c-1.5.22-2.91.43-4.35.58A26.36,26.36,0,0,1,170.2,204.62Z"/><path d="M105.12,113a7,7,0,0,0,5.82-1.08,6.24,6.24,0,0,0,2.66-4.71,73.5,73.5,0,0,0,0-9.74,6.6,6.6,0,0,0-6.87-6.1A6.81,6.81,0,0,0,100.12,98c0,.74,0,1.48,0,2.25v.69l4.35.6,0,.49c-.09.87-.17,1.73-.25,2.6-.19,2-.38,4.07-.67,6.08C103.3,112.08,103.68,112.61,105.12,113Zm-2.18-16.35a3.9,3.9,0,0,1,3.9-3.9,4,4,0,0,1,4,3.77,3.87,3.87,0,0,1-1.13,2.84,3.94,3.94,0,0,1-2.83,1.19h0A4,4,0,0,1,102.94,96.64Z"/><rect x="130" y="89.72" width="12.76" height="13.75"/><path d="M60.23,244.09c1.17-.07,2.32-.06,3.55,0H65l1.56-21H57.11l.12,1.39c.11,1.42.22,2.83.36,4.24.16,1.69.33,3.37.5,5.06.3,3,.62,6.09.88,9.15C59.06,243.93,59.28,244.14,60.23,244.09Z"/><path d="M96.41,102.33c-3.38-.4-5.14-.6-6.06-.77l-.85,8.3,12.15,1.25.84-8.09Z"/><path d="M141.33,87.61l.06-1.2c.13-2.37.25-4.41-1.89-5.88a5.37,5.37,0,0,0-5.81-.26c-2.5,1.31-2.43,3.52-2.36,6.07,0,.43,0,.85,0,1.27Z"/><path d="M124.76,92.73c-.05,2.84,0,5.63,0,7.74a1.33,1.33,0,0,0,1.47,1.49c.53,0,1,0,1.65,0h.44V91.3h-2C125.27,91.32,124.78,91.79,124.76,92.73Z"/><path d="M122.81,100.36V95.2l-1.24.46c-2,.74-3.85,1.44-5.73,2.19a1,1,0,0,0-.41.61c-.06,1.23-.05,2.49,0,3.82v.84Z"/><path d="M170.44,75.74c2.08-.12,3.8-1.6,3.85-3.31a3.12,3.12,0,0,0-.92-2.21A4.2,4.2,0,0,0,170.45,69c-3.22-.06-6.51,0-9.68,0-1.35,0-2.71,0-4,0h-3.42v13q0,10,0,20c0,4.2-1.95,6.48-6.11,7.16q-3.19.52-6.38,1.08a6.32,6.32,0,0,0-1,.27c-2,.68-3.23,2.32-2.9,4s2.24,2.87,4.35,2.63c.86-.1,1.74-.25,2.59-.4s1.43-.25,2.15-.34a5.84,5.84,0,0,1,1,0h.32l.13.29a1.78,1.78,0,0,1,.18.65c0,.73,0,1.46,0,2.19s-.06,1.46,0,2.18c.05,2.43-.76,3.23-3.36,3.29A4.06,4.06,0,0,0,143,125a1.14,1.14,0,0,0-.35.26.88.88,0,0,0,.4.39,4.64,4.64,0,0,0,4-.42,3.48,3.48,0,0,0,1.61-2.7c.11-1.44.08-2.89.06-4.42l0-1.82v-.43l.42-.07a13.39,13.39,0,0,0,11.2-13.28V75.76h8.18C169.12,75.77,169.78,75.78,170.44,75.74Z"/><path d="M86,104.94c-.32,2.2.14,3.11,1.95,3.59l.6-5.68h-.24A2.09,2.09,0,0,0,86,104.94Z"/><path d="M83,110.18a50.17,50.17,0,0,0-.26-5.26c-.06-.71-.12-1.43-.17-2.18a36.28,36.28,0,0,0-16.92,5.76c2.59,4.81,6.66,7.55,13.91,9.39l1,.24L74.68,123a4.54,4.54,0,0,0,1.56-.48C80.61,119.78,82.9,115.64,83,110.18Z"/><path d="M61.3,92a3.29,3.29,0,0,1,2.75.45c.75-1.34,1.55-2,2.42-2.06A3,3,0,0,1,68.89,92l.06,0c1-.67,2.06-1.36,3.09-1,.68.25,1.18,1,1.54,2.13a5.58,5.58,0,0,0,.59.09l.31,0a6.2,6.2,0,0,0,.79.06c.67,0,1.12.06,1.14.56.06,1.23.89,1.92,1.85,2.72a4.87,4.87,0,0,1,2.17,3.17A1.69,1.69,0,0,0,81.6,99c.18-.44,0-1.15-.64-2A16.65,16.65,0,0,0,66.73,89h-.14c-3.88,0-10.46,4.48-11.84,8.1-.21.54-.43,1.08-.65,1.62A18.72,18.72,0,0,0,52.34,105a24.64,24.64,0,0,0,1.1,6.45c.21.79.42,1.6.6,2.41l.54-.07c.87-1.42.82-3.22-.16-5.36l-.27-.55c-.57-1.15-1.16-2.34.41-3.77a6.77,6.77,0,0,0-.06-.92.69.69,0,0,0-.14-.27,1.37,1.37,0,0,1-.28-.74c0-1.94.47-2,.68-2.07,1-.17,1.15-1,1.37-2.23s.58-3.16,2.93-3.1a1.25,1.25,0,0,0,.69-.55A3,3,0,0,1,61.3,92Z"/><path d="M63.36,110,56,116.31l10,3.11a13.39,13.39,0,0,1,0-2.9C66.09,114.05,66.25,111.72,63.36,110Z"/><path d="M215.88,118.45l-.89,2a49.21,49.21,0,0,0-2,4.87c-1.72,5.18-1,9.85,2.24,13.86a4.61,4.61,0,0,0,1.31,1l-3.92-6.51,1,.09c7.45.72,12.21-.49,16.26-4.14A36.12,36.12,0,0,0,215.88,118.45Z"/><path d="M243.6,130.8a18.35,18.35,0,0,0,.46-6.51c0-.59-.05-1.17-.06-1.74-.08-3.93-4.87-10.47-8.54-11.67a16.63,16.63,0,0,0-16.06,2.64c-.88.65-1.33,1.24-1.3,1.71s.3.73.84,1.12a4.87,4.87,0,0,1,3.11-2.26c1.18-.43,2.19-.79,2.66-1.93.19-.47.62-.34,1.26-.14.26.07.55.16.77.21l.3.06a4.21,4.21,0,0,0,.6.11,2.94,2.94,0,0,1,2.16-1.49c1.07,0,1.85,1,2.58,2l0,.06c1.12-.78,2.05-1,2.81-.68s1.33,1.24,1.59,2.75a3.28,3.28,0,0,1,2.74.51,3,3,0,0,1,.7,2.65,1.33,1.33,0,0,0,.47.76c2.24.73,1.93,2.56,1.7,3.89s-.3,2.08.54,2.57c.18.11.6.35-.05,2.18a1.33,1.33,0,0,1-.52.59.83.83,0,0,0-.19.16,3.06,3.06,0,0,0-.37,1c1,1.83,0,2.75-.92,3.64l-.43.43c-1.65,1.68-2.31,3.36-2,5l.48.25c.44-.71.92-1.4,1.38-2.08A24.25,24.25,0,0,0,243.6,130.8Z"/><path d="M227,137a14,14,0,0,1-1,2.74l10.44.43-4.86-8.43C228.26,132.41,227.62,134.66,227,137Z"/><path d="M215,216.08c11.85.29,24.5.31,37.66-2.48-.26-3.64-.48-7.27-.7-10.88-.52-8.65-1.06-17.6-2.13-26.29-.9-7.27-3-14.42-5.51-22.34-1.72-5.48-5.15-9.1-9.93-10.45-3.82-1.09-6.85-.41-9,2-4.08,4.64-5.77,10.52-7.39,16.21l-.18.64c1.71.62,2.5-.05,3.24-1.4,1.61-2.94,3.29-5.8,5.32-9.2a7.37,7.37,0,0,1,4.37-3.6,5.91,5.91,0,0,1,4.53.81c3.06,1.87,3.66,5.31,1.56,9-1.12,1.95-2.27,3.9-3.41,5.84-1.37,2.34-2.75,4.68-4.09,7.05a7.15,7.15,0,0,1-6.77,3.93c-1.7,0-3.4,0-5.16,0h-2C213.87,187.22,213.73,200,215,216.08Z"/><path d="M234,150.86c-2-1.19-4.09-.58-5.46,1.6-2.51,4-4.34,7.13-5.93,10.09a4,4,0,0,1-4.07,2.32c-4.58-.11-9.08-.07-12.88,0-2.28,0-5,.75-5,4s2.73,3.89,5,3.92h13.49c1.14,0,2.29,0,3.43,0a4.68,4.68,0,0,0,4.54-2.49l2.44-4.17c1.87-3.16,3.79-6.43,5.63-9.68C236.51,154.24,236,152.05,234,150.86Z"/><path d="M223.05,240.14c-.15,3.2,2.76,5.43,5.54,5.66,3.42.27,6.29-1.74,6.69-4.69.71-5.21,1.25-10.55,1.77-15.7q.3-2.94.61-5.87h-13q-.25,2.94-.52,5.83C223.72,230.45,223.28,235.25,223.05,240.14Z"/><rect x="180.94" y="161.21" width="14.79" height="5.12"/><path d="M179.29,169.07c-.18,0-.52.3-.76.52l-.07.06.11.12c.25.25.61.62.78.62,5.11.07,10.3.06,15.32.06h3.83l.22-.31-.32-.29c-.38-.35-.82-.76-1.12-.76C192.08,169,186.37,169,179.29,169.07Z"/><path d="M61.08,131.21a6.13,6.13,0,0,0,0,3.3l.18.55c1.87,5.5,3.79,11.19,6,16.66a11.74,11.74,0,0,0,11,7.76c7,.23,14.19.18,21.11.13l6.5,0c1.82,0,3.14-1,4.16-3.16l.35-.72,4.56,5.63c0-.11-.1-.21-.14-.32-.8-1.71-1.62-3.49-2.59-5.13-1.24-2.12-2.59-4.24-3.88-6.29-1.47-2.31-3-4.7-4.38-7.12h0l-1.1.69c.84,1.37,1.7,2.74,2.58,4.14l2.1,3.36H85.45a2.91,2.91,0,0,1-1,.1c-1-.06-2-.05-3-.05-.68,0-1.36,0-2,0a4.22,4.22,0,0,1-4.2-3.06c-1.76-5-3.66-10.3-5.83-16.19a4.36,4.36,0,0,0-4.31-3.1A4,4,0,0,0,61.08,131.21Z"/></svg>
