<svg xmlns="http://www.w3.org/2000/svg" fill="#1A76D1" xmlns:xlink="http://www.w3.org/1999/xlink" version="1.1" x="0px" y="0px" viewBox="0 0 512 640" style="enable-background:new 0 0 512 512;" xml:space="preserve"><g><g><path d="M253.6,174.5h102.3c3.1,0,5.7-2.5,5.7-5.7c0-3.1-2.5-5.7-5.7-5.7H253.6c-3.1,0-5.7,2.5-5.7,5.7    C247.9,171.9,250.5,174.5,253.6,174.5z"/><path d="M253.6,277.7h102.3c3.1,0,5.7-2.5,5.7-5.7c0-3.1-2.5-5.7-5.7-5.7H253.6c-3.1,0-5.7,2.5-5.7,5.7    C247.9,275.1,250.5,277.7,253.6,277.7z"/><path d="M253.6,380.9h102.3c3.1,0,5.7-2.5,5.7-5.7c0-3.1-2.5-5.7-5.7-5.7H253.6c-3.1,0-5.7,2.5-5.7,5.7    C247.9,378.3,250.5,380.9,253.6,380.9z"/><path d="M159.3,23.6h-3.4c-3.1,0-5.7,2.5-5.7,5.7c0,3.1,2.5,5.7,5.7,5.7h3.4c3.1,0,5.7-2.5,5.7-5.7    C164.9,26.2,162.4,23.6,159.3,23.6z"/><path d="M339,25.3c-0.1-0.1-0.2-0.2-0.3-0.3c-0.2-0.1-0.3-0.3-0.5-0.4c-0.1-0.1-0.3-0.1-0.4-0.2c-0.2-0.1-0.4-0.2-0.6-0.3    c-0.2-0.1-0.3-0.1-0.5-0.1c-0.2-0.1-0.4-0.1-0.6-0.2c-0.4-0.1-0.7-0.1-1.1-0.1H188.9c-3.1,0-5.7,2.5-5.7,5.7    c0,3.1,2.5,5.7,5.7,5.7h140.4v50.7c0,15.3,12.4,27.7,27.7,27.7h27.3c3.1,0,5.7-2.5,5.7-5.7c0-3.1-2.5-5.7-5.7-5.7h-27.3    c-9,0-16.4-7.3-16.4-16.4V42.9l68.1,67.2v342c0,13.7-11.2,24.9-24.9,24.9H128.1c-13.7,0-24.9-11.2-24.9-24.9V59.9    c0-13.7,11.2-24.9,24.9-24.9c3.1,0,5.7-2.5,5.7-5.7c0-3.1-2.5-5.7-5.7-5.7c-20,0-36.3,16.3-36.3,36.3v392.2    c0,20,16.3,36.3,36.3,36.3h255.8c20,0,36.3-16.3,36.3-36.3V107.7c0-1.5-0.6-3-1.7-4L339,25.3z"/><path d="M187.4,131.6c-20.5,0-37.2,16.7-37.2,37.2c0,20.5,16.7,37.2,37.2,37.2c20.5,0,37.2-16.7,37.2-37.2    C224.7,148.3,208,131.6,187.4,131.6z M187.4,194.6c-14.3,0-25.9-11.6-25.9-25.9c0-14.3,11.6-25.9,25.9-25.9s25.9,11.6,25.9,25.9    C213.3,183,201.7,194.6,187.4,194.6z"/><path d="M187.4,234.8c-20.5,0-37.2,16.7-37.2,37.2c0,20.5,16.7,37.2,37.2,37.2c20.5,0,37.2-16.7,37.2-37.2    C224.7,251.5,208,234.8,187.4,234.8z M187.4,297.9c-14.3,0-25.9-11.6-25.9-25.9c0-14.3,11.6-25.9,25.9-25.9s25.9,11.6,25.9,25.9    C213.3,286.3,201.7,297.9,187.4,297.9z"/><path d="M187.4,338c-20.5,0-37.2,16.7-37.2,37.2s16.7,37.2,37.2,37.2c20.5,0,37.2-16.7,37.2-37.2S208,338,187.4,338z M187.4,401.1    c-14.3,0-25.9-11.6-25.9-25.9c0-14.3,11.6-25.9,25.9-25.9s25.9,11.6,25.9,25.9C213.3,389.5,201.7,401.1,187.4,401.1z"/></g></g></svg>
