<svg xmlns="http://www.w3.org/2000/svg" fill="#1A76D1" xmlns:xlink="http://www.w3.org/1999/xlink" version="1.1" x="0px" y="0px" viewBox="0 0 100 125" style="enable-background:new 0 0 100 100;" xml:space="preserve"><g><g><g><g><path d="M6.3,98.5c-0.1,0-0.2,0-0.3,0c-0.6-0.1-1-0.7-0.8-1.3l2.2-9c1-5.5-1.2-11-3.4-16.3      c-0.8-2.1-1.7-4.2-2.4-6.2C-2.3,53.1,1,41.1,9.9,35c3-2.1,6.9-3.5,11.7-4.3c11.7-1.9,19.1,1.2,23.2,4.2      c4.3,3.1,7.1,7.6,7.8,12.2c0.3,2,0.5,3.7,0.7,5.1C54.2,59,54.2,59,58,65.2l0.9,1.4c0.7,1.1,0.5,2.6-0.4,3.6      c-0.9,0.9-2.2,1.5-3.6,1.7c-0.6,0.1-1.2-0.4-1.2-1c-0.1-0.6,0.4-1.2,1-1.2c0.9-0.1,1.8-0.5,2.3-1c0.2-0.2,0.2-0.6,0.1-0.8      l-0.9-1.4c-4-6.5-4-6.6-5-13.8c-0.2-1.4-0.4-3-0.7-5.1c-0.6-4.1-3.1-8-6.9-10.8C39.7,34,32.9,31.2,22,33      c-4.5,0.7-8.1,2-10.8,3.9c-8.1,5.5-11,16.5-7.4,28c0.6,2,1.4,3.9,2.3,6c2.3,5.6,4.7,11.5,3.5,17.6l-2.2,9.1      C7.2,98.2,6.8,98.5,6.3,98.5z"/></g><g><path d="M38.5,99.1c-0.5,0-0.9-0.3-1.1-0.8c-0.7-2.2-0.8-5.1-0.2-8c0.4-1.9,1.8-3.4,3.7-3.8      c1.4-0.4,2.9-0.5,4.3-0.5c0.5,0,1,0,1.6,0.1c0.9,0.1,1.7,0.1,2.6,0c1.3-0.1,2.3-0.6,2.9-1.3c0.4-0.6,0.5-1.3,0.3-2.2      c-0.2-0.7-0.3-1.6-0.3-2.6v-0.8c0-0.6,0.5-1.1,1.1-1.1c0.6,0,1.1,0.5,1.1,1.1v0.8c0,0.7,0.1,1.5,0.3,2.1c0.3,1.5,0.1,2.9-0.7,4      c-0.9,1.3-2.5,2.1-4.5,2.2c-1,0.1-2,0-2.9,0c-0.5,0-1-0.1-1.5-0.1c-1.3,0-2.5,0.1-3.8,0.4c-1,0.3-1.8,1.1-2.1,2.1      c-0.5,2.5-0.5,5.1,0.1,6.9c0.2,0.6-0.1,1.2-0.7,1.4C38.8,99,38.6,99.1,38.5,99.1z"/></g></g></g><g><g><path d="M42.6,30.3c-0.6,0-1.1-0.5-1.1-1.1V6.2c0-2.9,2.4-5.3,5.3-5.3h38.5c0.6,0,1.1,0.5,1.1,1.1     c0,0.6-0.5,1.1-1.1,1.1H46.7c-1.7,0-3.1,1.4-3.1,3.1v22.9C43.7,29.8,43.2,30.3,42.6,30.3z"/></g><g><path d="M94.7,45H55.1c-0.6,0-1.1-0.5-1.1-1.1c0-0.6,0.5-1.1,1.1-1.1h39.6c1.7,0,3.1-1.4,3.1-3.1V6.2     c0-1.7-1.4-3.1-3.1-3.1h-9.5c-0.6,0-1.1-0.5-1.1-1.1c0-0.6,0.5-1.1,1.1-1.1h9.5c2.9,0,5.3,2.4,5.3,5.3v33.4     C100,42.6,97.6,45,94.7,45z"/></g><g><path d="M92,38.1H52.7c-0.6,0-1.1-0.5-1.1-1.1c0-0.6,0.5-1.1,1.1-1.1h38.1V10H50.6v21.8c0,0.6-0.5,1.1-1.1,1.1     c-0.6,0-1.1-0.5-1.1-1.1V8.9c0-0.6,0.5-1.1,1.1-1.1H92c0.6,0,1.1,0.5,1.1,1.1v28C93.1,37.6,92.6,38.1,92,38.1z"/></g></g><g><path d="M28.9,98.5c-0.6,0-1.1-0.5-1.1-1.1V84.8c0-6.1,4.9-11,11-11H77c5.8,0,9.8,1.6,11.8,4.6    c2.4,3.9,1.9,9.4-1.3,12.6c-2.4,2.4-6.1,3.4-9.5,2.5c-3.7-0.9-6.4-3.9-7.6-8.2c-0.4-1.4-0.7-3.4-0.9-6.2c0-0.6,0.4-1.1,1-1.2    c0.6,0,1.1,0.4,1.2,1c0.2,2.6,0.5,4.5,0.9,5.8c1,3.6,3.2,6,6.1,6.7c2.6,0.7,5.6-0.1,7.4-1.9c2.5-2.5,2.9-6.8,1-9.8    c-1.5-2.4-4.8-3.6-9.9-3.6H38.8C34,76.1,30,80,30,84.8v12.6C30,98.1,29.5,98.5,28.9,98.5z"/></g><g><path d="M86.3,38.1c-0.6,0-1.1-0.5-1.1-1.1c0-8-6.5-14.5-14.5-14.5c-8,0-14.5,6.5-14.5,14.5    c0,0.6-0.5,1.1-1.1,1.1c-0.6,0-1.1-0.5-1.1-1.1c0-9.2,7.5-16.7,16.7-16.7S87.4,27.8,87.4,37C87.4,37.6,86.9,38.1,86.3,38.1z"/></g><g><path d="M79,38.1c-0.6,0-1.1-0.5-1.1-1.1c0-3.9-3.2-7.1-7.1-7.1c-3.9,0-7.1,3.2-7.1,7.1c0,0.6-0.5,1.1-1.1,1.1    c-0.6,0-1.1-0.5-1.1-1.1c0-5.2,4.2-9.3,9.3-9.3s9.3,4.2,9.3,9.3C80.1,37.6,79.6,38.1,79,38.1z"/></g></g></svg>
