<svg xmlns="http://www.w3.org/2000/svg" fill="#1A76D1" xmlns:xlink="http://www.w3.org/1999/xlink" version="1.1" x="0px" y="0px" viewBox="0 0 68 85" enable-background="new 0 0 68 68" xml:space="preserve"><g><path d="M58.6,45.5V15.1c0-0.6-0.4-1-1-1H10.4c-0.6,0-1,0.4-1,1v30.4c0,0.6,0.4,1,1,1h47.1C58.1,46.5,58.6,46,58.6,45.5z    M56.6,44.5H11.4V16.1h45.1V44.5z"/><path d="M65,48.5h-2.4V14.6c0-2.5-2-4.5-4.4-4.5H9.8c-2.4,0-4.4,2-4.4,4.5v33.8H3c-0.6,0-1,0.4-1,1v2.4c0,3.3,2.7,6,6,6H60   c3.3,0,6-2.7,6-6v-2.4C66,48.9,65.6,48.5,65,48.5z M7.4,14.6c0-1.4,1.1-2.5,2.4-2.5h48.4c1.3,0,2.4,1.1,2.4,2.5v33.8H7.4V14.6z    M26.1,50.5h15.9v1.7H26.1V50.5z M64,51.9c0,2.2-1.8,4-4,4H8c-2.2,0-4-1.8-4-4v-1.4c5,0,14.8,0,20.1,0v2.7c0,0.6,0.4,1,1,1h17.9   c0.6,0,1-0.4,1-1v-2.7c5.3,0,15.2,0,20.1,0V51.9z"/><path d="M15.8,39.6h16.2c0.6,0,1-0.4,1-1v-0.2c0-2.4-0.9-4.7-2.7-6.4c-0.8-0.8-1.7-1.4-2.7-1.9c0.9-1.2,1.4-2.7,1.4-4.1   c0-2.8-2.3-5.1-5.1-5.1s-5.1,2.3-5.1,5.1c0,1.4,0.5,2.9,1.4,4.1c-3.2,1.4-5.4,4.7-5.4,8.3v0.2C14.8,39.2,15.3,39.6,15.8,39.6z    M23.9,22.9c1.7,0,3.1,1.4,3.1,3.1c0,1.9-1.6,4.3-3.1,4.3c-1.6,0-3.1-2.5-3.1-4.3C20.8,24.3,22.2,22.9,23.9,22.9z M21.8,31.7   c0.7,0.4,1.4,0.7,2.2,0.7c0.8,0,1.5-0.3,2.2-0.7c1.1,0.3,2.1,0.9,2.9,1.7c1.1,1.1,1.9,2.6,2,4.2H16.9   C17.2,34.9,19.1,32.6,21.8,31.7z"/><path d="M38.4,28.8h3.3v3.3c0,0.6,0.4,1,1,1h3.9c0.6,0,1-0.4,1-1v-3.3h3.3c0.6,0,1-0.4,1-1v-3.9c0-0.6-0.4-1-1-1h-3.3v-3.3   c0-0.6-0.4-1-1-1h-3.9c-0.6,0-1,0.4-1,1v3.3h-3.3c-0.6,0-1,0.4-1,1v3.9C37.4,28.4,37.8,28.8,38.4,28.8z M39.4,24.9h3.3   c0.6,0,1-0.4,1-1v-3.3h1.9v3.3c0,0.6,0.4,1,1,1h3.3v1.9h-3.3c-0.6,0-1,0.4-1,1v3.3h-1.9v-3.3c0-0.6-0.4-1-1-1h-3.3V24.9z"/><path d="M37.1,37.6h15.1c0.6,0,1-0.4,1-1c0-0.6-0.4-1-1-1H37.1c-0.6,0-1,0.4-1,1C36.1,37.2,36.5,37.6,37.1,37.6z"/><path d="M37.1,42h15.1c0.6,0,1-0.4,1-1s-0.4-1-1-1H37.1c-0.6,0-1,0.4-1,1S36.5,42,37.1,42z"/></g></svg>
